<?xml version="1.0" encoding="utf-8"?>
<svg viewBox="0 0 24 24" xmlns="http://www.w3.org/2000/svg">
  <g transform="matrix(0.04085, 0, 0, 0.040878, 0.00004, -0.0026)" style="">
    <path fill="#3c7dbd" d="M483.896,444.868c0,0.031,0,0.062,0,0.092l0.122-0.092C483.981,444.868,483.938,444.868,483.896,444.868z"/>
    <path fill="#3c7dbd" d="M484.013,444.875c0.006-0.007-0.116,0.085-0.116,0.085c0.036,0,0.079,0,0.116,0 C484.013,444.936,484.013,444.905,484.013,444.875z"/>
    <path fill="#3c7dbd" d="M103.501,444.868l0.122,0.092c0-0.03,0-0.061,0-0.092C103.581,444.868,103.538,444.868,103.501,444.868z"/>
    <path d="M483.479,91.8c-18.359,0-36.72,0-55.08,0c0,18.36,0,30.6,0,48.96c18.36,0,36.721,0,55.08,0 C483.479,122.399,483.479,110.16,483.479,91.8z" style="fill: rgb(255, 255, 255);"/>
    <path d="M532.439,244.799c-12.239,0-30.6,0-48.96,0c0-18.36,0-36.72,0-55.08c-18.359,0-36.72,0-55.08,0c0-12.24,0-30.6,0-48.96 c-18.359,0-36.72,0-55.079,0c0,18.36,0,36.72,0,48.96c-24.48,0-52.981,0-79.561,0c-24.48,0-55.08,0-79.56,0c0-12.24,0-30.6,0-48.96 c-18.36,0-36.72,0-55.08,0c0,18.36,0,36.72,0,48.96c-18.36,0-36.72,0-55.08,0c0,18.36,0,36.72,0,55.08c-18.36,0-36.72,0-48.96,0 c0-36.72,0-67.32,0-104.04c-18.36,0-36.72,0-55.08,0c0,67.32,0,134.64,0,201.96c18.36,0,30.6,0,48.96,0c0,18.359,0,36.72,0,55.08 c18.36,0,36.72,0,55.08,0c0,11.224,0,29.522,0,47.393c-13.941,0.196-27.155,0.178-41.102,0.367 c-2.956,0.037-7.858,0.007-7.858,0.007c0,16.793,0,31.793,0,50.153c12.24,0,31.64,0,48.439,0c0-17.778,0.686-32.896,0.729-48.96 h0.006c18.293,0,36.58,0,54.866,0c0-18.36,0-36.721,0-48.96c48.96,0,91.8,0,134.64,0c44.297,0,85.68,0,134.64,0 c0,12.239,0,30.6,0,48.96c18.293,0,36.58,0,54.866,0c0,0,0.006,0,0.013,0c0.036,16.064,0.728,31.182,0.728,48.96 c16.794,0,36.194,0,48.434,0c0-18.36,0-33.36,0-50.153c0,0-4.901,0.03-7.857-0.007c-13.947-0.184-27.161-0.165-41.103-0.367 c0-17.87,0-36.169,0-47.393c18.36,0,36.721,0,55.08,0c0-18.36,0-36.721,0-55.08c18.36,0,30.601,0,48.96,0 c0-67.32,0-134.64,0-201.96c-18.359,0-36.72,0-55.08,0C532.439,177.479,532.439,208.08,532.439,244.799z M214.2,293.76 c0,9.425,0,19.994,0,30.6c-18.36,0-36.72,0-55.08,0c0-10.605,0-21.175,0-30.6c0-6.206,0-12.393,0-18.36c18.36,0,36.72,0,55.08,0 C214.2,281.367,214.2,287.554,214.2,293.76z M428.399,293.76c0,9.425,0,19.994,0,30.6c-18.359,0-36.72,0-55.079,0 c0-10.605,0-21.175,0-30.6c0-6.206,0-12.393,0-18.36c18.359,0,36.72,0,55.079,0C428.399,281.367,428.399,287.554,428.399,293.76z" style="fill: rgb(255, 255, 255);"/>
    <path d="M104.04,91.8c0,18.36,0,30.6,0,48.96c18.36,0,36.72,0,55.08,0c0-18.36,0-30.6,0-48.96C140.76,91.8,122.4,91.8,104.04,91.8z " style="fill: rgb(255, 255, 255);"/>
    <path fill="#3c7dbd" d="M103.507,444.967c0.037,0,0.08,0,0.116,0c0,0-0.122-0.092-0.116-0.086C103.507,444.905,103.507,444.936,103.507,444.967z"/>
  </g>
</svg>